<svg id="Group_287" data-name="Group 287" xmlns="http://www.w3.org/2000/svg" viewBox="0 0 32.471 123.884">
  <defs>
    <style>
      .cls-1 {
        fill: #00ba4c;
      }
    </style>
  </defs>
  <path id="Path_1" data-name="Path 1" class="cls-1" d="M18.6,270.627c0-.579.434-.8,1.446-.8h7.738c.145,0,.217-.072.217-.145s-.072-.072-.145-.145a3.05,3.05,0,0,1-1.374-2.6c0-3.11,2.893-4.339,9.691-4.339s9.691,1.229,9.691,4.339a3.481,3.481,0,0,1-1.446,2.748.156.156,0,0,0-.145.145c0,.072.072.145.217.145h.145c.579,0,1.012.217,1.012.723v1.157c0,.578-.434.8-1.446.8H20.046c-.94,0-1.446-.217-1.446-.8Zm17.646-5.279c-5.279,0-6.87.506-6.87,2.314,0,1.736,1.591,2.242,6.87,2.242s6.87-.506,6.87-2.242C43.116,265.854,41.453,265.348,36.246,265.348Z" transform="translate(-18.6 -148.769)"/>
  <path id="Path_2" data-name="Path 2" class="cls-1" d="M37.844,245.9h.94c.94,0,1.446.145,1.446.8v5.858c0,.289.145.362.434.362,3.978,0,5.5-.8,5.5-2.459,0-1.374-1.157-1.88-2.965-1.88h-.651c-.362,0-.506-.145-.506-.434v-1.229c0-.651.506-.8,1.519-.8h.072c2.748,0,5.352,1.3,5.352,4.339,0,3.761-2.82,5.207-9.691,5.207-6.8,0-9.691-1.3-9.691-5.062C29.527,247.057,32.565,245.9,37.844,245.9Zm-.434,7.015c.362,0,.434-.072.434-.362v-3.616c0-.289-.072-.362-.434-.362h-.434c-3.11,0-4.7.579-4.7,2.1C32.348,252.192,33.866,252.915,37.41,252.915Z" transform="translate(-21.644 -144.146)"/>
  <path id="Path_3" data-name="Path 3" class="cls-1" d="M35.385,229h9.185c1.591,0,2.1-.217,2.459-.579a.657.657,0,0,1,.506-.217,1.3,1.3,0,0,1,1.3,1.446,1.723,1.723,0,0,1-1.374,1.736.192.192,0,0,0-.217.217c0,.072.072.145.145.217a3.076,3.076,0,0,1,1.519,2.748c0,2.748-2.17,4.195-5.352,4.195-3.471,0-5.5-1.736-5.5-5.062a5.735,5.735,0,0,1,.145-1.229l.072-.362c.072-.217-.145-.362-.362-.362H35.385c-2.242,0-3.11.579-3.11,1.953,0,1.519,1.085,1.953,2.82,1.953h.723c.362,0,.506.145.506.434v1.229c0,.651-.434.8-1.446.8h-.289c-2.676,0-4.99-1.229-4.99-4.484C29.527,230.731,31.19,229,35.385,229Zm8.027,7.015c1.808,0,2.748-.651,2.748-2.17,0-1.446-1.085-2.17-2.82-2.17h-2.6c-.217,0-.289.072-.289.289v1.157C40.447,235.287,41.387,236.01,43.412,236.01Z" transform="translate(-21.644 -139.247)"/>
  <path id="Path_4" data-name="Path 4" class="cls-1" d="M29.8,219.023c0-.579.434-.8,1.446-.8H42.818c2.17,0,3.327-.434,3.327-2.17,0-1.519-1.374-2.242-3.544-2.242H31.246c-.94,0-1.446-.217-1.446-.8v-1.157c0-.579.434-.8,1.446-.8H44.7c1.591,0,2.1-.217,2.459-.651a.657.657,0,0,1,.506-.217,1.3,1.3,0,0,1,1.3,1.446,1.718,1.718,0,0,1-1.446,1.736c-.145,0-.217.072-.217.145,0,.145.072.145.145.217a3.53,3.53,0,0,1,1.591,3.182c0,2.6-2.025,3.761-5.279,3.761H31.246c-.94,0-1.446-.145-1.446-.8Z" transform="translate(-21.7 -134.264)"/>
  <path id="Path_5" data-name="Path 5" class="cls-1" d="M23.272,201.844c0-.579.434-.8,1.446-.8h2.82c.289,0,.434-.072.434-.362v-1.88c0-.362.145-.434.8-.434h1.374c.579,0,.8.072.8.434v1.88c0,.289.072.362.434.362H42.148c1.736,0,2.17-.434,2.17-1.519v-.8c0-.289.145-.434.506-.434H46.27c.434,0,.579.145.8.506a3.876,3.876,0,0,1,.217,1.663c0,2.1-1.085,3.182-4.484,3.182H31.3c-.362,0-.434.072-.434.362v1.012c0,.362-.217.434-.8.434H28.7c-.579,0-.8-.072-.8-.434v-.94c0-.362-.217-.434-.723-.434l-2.531-.072c-1.012-.072-1.446-.217-1.446-.8v-.94Z" transform="translate(-19.873 -130.97)"/>
  <path id="Path_6" data-name="Path 6" class="cls-1" d="M29.8,190.312c0-.362.217-.579.8-.651l14.536-1.808c.362,0,.434-.072.434-.289,0-.145-.145-.217-.362-.217L30.6,185.394c-.506-.072-.8-.217-.8-.651V183.3c0-.506.362-.579,1.012-.506l22.564,3.471c.506.072.8.217.8.651v1.157c0,.506-.362.651-1.012.506L49.4,188c-.289,0-.506,0-.506.289-.145,1.085-.579,1.446-2.025,1.663l-16.055,2.387c-.723.072-1.012,0-1.012-.506Z" transform="translate(-21.7 -126.671)"/>
  <path id="Path_7" data-name="Path 7" class="cls-1" d="M33.839,168.045H34.2c1.012,0,1.446.145,1.446.8V170a.457.457,0,0,1-.506.506H34.49c-1.591,0-2.314.289-2.314,1.663s.651,1.736,2.025,1.736c1.663,0,2.676-1.085,3.905-2.387,1.663-1.88,3.4-3.616,6.147-3.616,2.893,0,4.628,1.446,4.628,4.411,0,3.182-2.1,4.339-4.411,4.339h-.506c-.94,0-1.446-.145-1.446-.8v-1.229c0-.289.145-.434.506-.434h.723c1.663,0,2.531-.362,2.531-1.88,0-1.446-.8-1.663-2.025-1.663-1.736,0-2.82,1.157-4.122,2.6-1.591,1.736-3.182,3.4-6,3.4-2.893,0-4.628-1.446-4.628-4.411C29.5,169.129,31.6,168.045,33.839,168.045Z" transform="translate(-21.617 -122.556)"/>
  <path id="Path_8" data-name="Path 8" class="cls-1" d="M35.385,151.2h9.185c1.591,0,2.1-.217,2.459-.579a.657.657,0,0,1,.506-.217,1.3,1.3,0,0,1,1.3,1.446,1.723,1.723,0,0,1-1.374,1.736.192.192,0,0,0-.217.217c0,.145.072.145.145.217a3.076,3.076,0,0,1,1.519,2.748c0,2.748-2.17,4.195-5.352,4.195-3.471,0-5.5-1.736-5.5-5.062a5.736,5.736,0,0,1,.145-1.229l.072-.362c.072-.217-.145-.362-.362-.362H35.385c-2.242,0-3.11.579-3.11,1.953,0,1.519,1.085,1.953,2.82,1.953h.723c.362,0,.506.145.506.434v1.229c0,.651-.434.8-1.446.8h-.289c-2.676,0-4.99-1.229-4.99-4.484C29.527,152.859,31.19,151.2,35.385,151.2Zm8.027,7.015c1.808,0,2.748-.651,2.748-2.17,0-1.446-1.085-2.17-2.82-2.17h-2.6c-.217,0-.289.072-.289.289v1.157C40.447,157.415,41.387,158.211,43.412,158.211Z" transform="translate(-21.644 -117.712)"/>
  <path id="Path_9" data-name="Path 9" class="cls-1" d="M29.717,141.383c0-.506.362-.651,1.012-.723h.217c.145,0,.217-.072.217-.145s-.072-.145-.145-.217a3.578,3.578,0,0,1-1.519-3.037c0-2.6,2.025-3.761,5.135-3.761H47.291c.94,0,1.446.145,1.446.8v1.157c0,.579-.434.8-1.446.8H35.719c-2.17,0-3.327.506-3.327,2.17,0,1.591,1.374,2.314,3.471,2.314H47.291c.94,0,1.446.217,1.446.8v1.157c0,.579-.434.8-1.446.8H31.163c-.94,0-1.446-.145-1.446-.8Z" transform="translate(-21.617 -113.034)"/>
  <path id="Path_10" data-name="Path 10" class="cls-1" d="M20.572,118.236c0-.434.434-.506,1.012-.145l2.82,1.663c.506.289.579.506.579.868v.94c0,.362-.217.506-.868.289l-2.893-1.157c-.579-.217-.723-.434-.723-.868v-1.591ZM35.326,116.5h.94c.94,0,1.446.145,1.446.8v5.858c0,.289.145.362.434.362,3.978,0,5.5-.8,5.5-2.459,0-1.374-1.157-1.88-2.965-1.88h-.651c-.362,0-.506-.145-.506-.434v-1.229c0-.651.506-.8,1.519-.8h.072c2.748,0,5.352,1.3,5.352,4.339,0,3.761-2.82,5.207-9.691,5.207-6.8,0-9.691-1.3-9.691-5.062C27.009,117.657,30.046,116.5,35.326,116.5Zm-.434,7.015c.362,0,.434-.072.434-.362v-3.616c0-.289-.072-.362-.434-.362h-.434c-3.11,0-4.7.579-4.7,2.1C29.829,122.792,31.348,123.515,34.892,123.515Z" transform="translate(-19.126 -108.328)"/>
  <path id="Path_11" data-name="Path 11" class="cls-1" d="M30.262,106.357a2.708,2.708,0,0,1,.94-.868,2.477,2.477,0,0,1,1.3-.289,2.837,2.837,0,0,1,1.3.289,2.708,2.708,0,0,1,.94.868,2.271,2.271,0,0,1,0,2.459,2.708,2.708,0,0,1-.94.868,2.477,2.477,0,0,1-1.3.289,2.648,2.648,0,0,1-1.3-.289,2.708,2.708,0,0,1-.94-.868,2.438,2.438,0,0,1-.362-1.229A1.777,1.777,0,0,1,30.262,106.357Zm3.978.217a2.579,2.579,0,0,0-.8-.723,1.808,1.808,0,0,0-1.012-.289,1.66,1.66,0,0,0-1.012.289,1.743,1.743,0,0,0-.723.723,1.591,1.591,0,0,0-.289.94,1.808,1.808,0,0,0,.289,1.012,2.579,2.579,0,0,0,.8.723,2.354,2.354,0,0,0,1.012.289,2.31,2.31,0,0,0,1.012-.217,1.743,1.743,0,0,0,.723-.723,2.357,2.357,0,0,0,.289-.94A1.743,1.743,0,0,0,34.239,106.574Zm-1.736.072a.722.722,0,0,1,.289.362l.868-.506v.506l-.723.434v.579h.723v.434H31.129v-.94a1.222,1.222,0,0,1,.217-.723.884.884,0,0,1,.651-.217A.594.594,0,0,1,32.5,106.646Zm0,1.374v-.506a.506.506,0,1,0-1.012,0v.506Z" transform="translate(-21.728 -105.2)"/>
</svg>
