<svg xmlns="http://www.w3.org/2000/svg" width="50" height="50" viewBox="0 0 50 50">
  <metadata><?xpacket begin="﻿" id="W5M0MpCehiHzreSzNTczkc9d"?>
<x:xmpmeta xmlns:x="adobe:ns:meta/" x:xmptk="Adobe XMP Core 5.6-c138 79.159824, 2016/09/14-01:09:01        ">
   <rdf:RDF xmlns:rdf="http://www.w3.org/1999/02/22-rdf-syntax-ns#">
      <rdf:Description rdf:about=""/>
   </rdf:RDF>
</x:xmpmeta>
                                                                                                    
                                                                                                    
                                                                                                    
                                                                                                    
                                                                                                    
                                                                                                    
                                                                                                    
                                                                                                    
                                                                                                    
                                                                                                    
                                                                                                    
                                                                                                    
                                                                                                    
                                                                                                    
                                                                                                    
                                                                                                    
                                                                                                    
                                                                                                    
                                                                                                    
                                                                                                    
                           
<?xpacket end="w"?></metadata>
<defs>
    <style>
      .cls-1 {
        fill: #c9c9c9;
        fill-rule: evenodd;
      }
    </style>
  </defs>
  <path id="Forme_1" data-name="Forme 1" class="cls-1" d="M1750,2082.72v12.56c-0.01.12-.03,0.24-0.04,0.36-0.03,1.08-.06,2.16-0.1,3.24a21.973,21.973,0,0,1-.66,4.9,12.94,12.94,0,0,1-4.65,7.1,13.859,13.859,0,0,1-7.24,2.77c-1.7.18-3.43,0.2-5.14,0.3-0.34.01-.68,0.03-1.02,0.05h-12.3c-0.54-.02-1.08-0.05-1.61-0.07a38.491,38.491,0,0,1-5.47-.39,14.668,14.668,0,0,1-5.02-1.76,13.053,13.053,0,0,1-6.33-9.94c-0.23-1.71-.25-3.45-0.36-5.17-0.02-.46-0.04-0.93-0.06-1.39v-12.56c0.01-.16.04-0.31,0.04-0.46a44.357,44.357,0,0,1,.43-6.52,13.916,13.916,0,0,1,2.56-6.2,13.33,13.33,0,0,1,9.59-5.19c1.78-.2,3.58-0.21,5.38-0.3,0.28-.02.56-0.03,0.85-0.05h12.3c0.09,0.01.17,0.03,0.26,0.04,1.79,0.07,3.59.11,5.38,0.24a14.569,14.569,0,0,1,5.85,1.61,12.938,12.938,0,0,1,6.94,10.27c0.25,1.8.25,3.63,0.36,5.44C1749.96,2081.97,1749.98,2082.34,1750,2082.72Zm-25.33,26.82c3.24-.06,6.56-0.11,9.88-0.18a16.711,16.711,0,0,0,3.79-.45,8.431,8.431,0,0,0,6.57-6.51,21.818,21.818,0,0,0,.5-5.09c0.1-6.37.2-12.74-.11-19.11a11.812,11.812,0,0,0-1.03-4.45,8.351,8.351,0,0,0-5.86-4.66,22.126,22.126,0,0,0-5.19-.5c-5.48-.04-10.96-0.03-16.43,0a23.771,23.771,0,0,0-4.61.37,8.477,8.477,0,0,0-7.13,6.82,22.9,22.9,0,0,0-.47,4.89c-0.11,6.07-.15,12.15.07,18.22a15.135,15.135,0,0,0,.7,4.38,8.157,8.157,0,0,0,5.06,5.26,14.89,14.89,0,0,0,4.99.83C1718.47,2109.44,1721.53,2109.48,1724.67,2109.54Zm-12.5-20.57a12.83,12.83,0,1,1,12.79,12.86A12.814,12.814,0,0,1,1712.17,2088.97Zm4.5,0.02a8.33,8.33,0,1,0,8.36-8.32A8.335,8.335,0,0,0,1716.67,2088.99Zm21.69-16.33a3,3,0,1,1-3.02,3A3,3,0,0,1,1738.36,2072.66Z" transform="translate(-1700 -2064)"/>
</svg>
