<svg xmlns="http://www.w3.org/2000/svg" viewBox="0 0 40 40"><defs><style>.a{fill:#fff;}</style></defs><path class="a" d="M39.767,20.45a.679.679,0,0,0,0-1.024,8.667,8.667,0,0,0-11.595-.465,7.488,7.488,0,0,1-1.723-4.142A8.7,8.7,0,0,0,34.272,6.3a.976.976,0,0,0-.186-.512.7.7,0,0,0-.512-.186,8.652,8.652,0,0,0-8.522,7.818A7.177,7.177,0,0,1,20.908,11.7,8.675,8.675,0,0,0,20.442.159a.675.675,0,0,0-.978,0A8.654,8.654,0,0,0,19,11.748a7.5,7.5,0,0,1-4.144,1.722A8.7,8.7,0,0,0,6.333,5.651a.977.977,0,0,0-.512.186.7.7,0,0,0-.186.512,8.651,8.651,0,0,0,7.823,8.517,7.168,7.168,0,0,1-1.723,4.142,8.688,8.688,0,0,0-11.548.465A.711.711,0,0,0,0,19.938a.747.747,0,0,0,.233.512,8.667,8.667,0,0,0,11.595.465,7.488,7.488,0,0,1,1.723,4.142,8.7,8.7,0,0,0-7.823,8.517.976.976,0,0,0,.186.512.7.7,0,0,0,.512.186,8.652,8.652,0,0,0,8.522-7.819,7.177,7.177,0,0,1,4.144,1.722,8.675,8.675,0,0,0,.466,11.542.68.68,0,0,0,1.024,0,8.654,8.654,0,0,0,.466-11.588,7.5,7.5,0,0,1,4.144-1.722,8.7,8.7,0,0,0,8.522,7.819.977.977,0,0,0,.512-.186.7.7,0,0,0,.186-.512,8.651,8.651,0,0,0-7.823-8.517,7.168,7.168,0,0,1,1.723-4.142A8.519,8.519,0,0,0,39.767,20.45Zm-6.054-2.094a7.31,7.31,0,0,1,4.517,1.582,7.41,7.41,0,0,1-9.034,0A7.31,7.31,0,0,1,33.714,18.356ZM28.591,9.141a7.2,7.2,0,0,1,4.284-2.094,7.316,7.316,0,0,1-6.38,6.376A7.2,7.2,0,0,1,28.591,9.141ZM9.173,11.375a7.2,7.2,0,0,1-2.1-4.282,7.316,7.316,0,0,1,6.38,6.376A7.478,7.478,0,0,1,9.173,11.375ZM6.24,21.521a7.31,7.31,0,0,1-4.517-1.582,7.344,7.344,0,0,1,9.034,0A7.117,7.117,0,0,1,6.24,21.521Zm5.169,9.261a7.2,7.2,0,0,1-4.284,2.094A7.316,7.316,0,0,1,13.5,26.5,7.612,7.612,0,0,1,11.409,30.782Zm19.418-2.234a7.2,7.2,0,0,1,2.1,4.282,7.316,7.316,0,0,1-6.38-6.376A7.335,7.335,0,0,1,30.827,28.548ZM18.44,6.209A7.3,7.3,0,0,1,20.023,1.7a7.4,7.4,0,0,1,0,9.029A7.108,7.108,0,0,1,18.44,6.209Zm3.12,27.458a7.3,7.3,0,0,1-1.583,4.514,7.4,7.4,0,0,1,0-9.029A7.3,7.3,0,0,1,21.56,33.667Zm3.539-8.61a8.414,8.414,0,0,0-5.076,2.094,8.366,8.366,0,0,0-5.076-2.094,8.4,8.4,0,0,0-2.1-5.073A9.507,9.507,0,0,0,14.9,14.866a8.414,8.414,0,0,0,5.076-2.094,8.366,8.366,0,0,0,5.076,2.094,8.4,8.4,0,0,0,2.1,5.073A8.9,8.9,0,0,0,25.1,25.058Z" transform="translate(0 0.05)"/></svg>