<svg xmlns="http://www.w3.org/2000/svg" width="49.24" height="40.06" viewBox="0 0 49.24 40.06">
  <metadata><?xpacket begin="﻿" id="W5M0MpCehiHzreSzNTczkc9d"?>
<x:xmpmeta xmlns:x="adobe:ns:meta/" x:xmptk="Adobe XMP Core 5.6-c138 79.159824, 2016/09/14-01:09:01        ">
   <rdf:RDF xmlns:rdf="http://www.w3.org/1999/02/22-rdf-syntax-ns#">
      <rdf:Description rdf:about=""/>
   </rdf:RDF>
</x:xmpmeta>
                                                                                                    
                                                                                                    
                                                                                                    
                                                                                                    
                                                                                                    
                                                                                                    
                                                                                                    
                                                                                                    
                                                                                                    
                                                                                                    
                                                                                                    
                                                                                                    
                                                                                                    
                                                                                                    
                                                                                                    
                                                                                                    
                                                                                                    
                                                                                                    
                                                                                                    
                                                                                                    
                           
<?xpacket end="w"?></metadata>
<defs>
    <style>
      .cls-1 {
        fill: #c9c9c9;
        fill-rule: evenodd;
      }
    </style>
  </defs>
  <path class="cls-1" d="M1816.63,2078.72a19.86,19.86,0,0,1-5.8,1.59,10.133,10.133,0,0,0,4.44-5.59,20.028,20.028,0,0,1-6.42,2.45,10.11,10.11,0,0,0-17.48,6.92,10.264,10.264,0,0,0,.26,2.3,28.657,28.657,0,0,1-20.83-10.56,10.119,10.119,0,0,0,3.13,13.5,10.116,10.116,0,0,1-4.58-1.27v0.13a10.107,10.107,0,0,0,8.11,9.91,10.236,10.236,0,0,1-2.67.35,9.95,9.95,0,0,1-1.9-.18,10.115,10.115,0,0,0,9.44,7.02,20.293,20.293,0,0,1-12.55,4.33,21.226,21.226,0,0,1-2.41-.14,28.648,28.648,0,0,0,15.49,4.54c18.59,0,28.76-15.4,28.76-28.76,0-.44-0.01-0.87-0.03-1.31A20.382,20.382,0,0,0,1816.63,2078.72Z" transform="translate(-1767.38 -2073.97)"/>
</svg>
